{
  "accessors": [
    {
      "bufferView": 2,
      "componentType": 5126,
      "count": 1800,
      "max": [
        38.954864501953125,
        53.284271240234375,
        3.237030267715454
      ],
      "min": [
        -54.25552749633789,
        -41.5072021484375,
        -64.2882308959961
      ],
      "type": "VEC3"
    },
    {
      "bufferView": 2,
      "byteOffset": 21600,
      "componentType": 5126,
      "count": 1800,
      "max": [
        0.9996903538703918,
        0.9994137287139893,
        0.9984477162361145
      ],
      "min": [
        -0.9918230175971985,
        -0.9969726204872131,
        -0.9975373148918152
      ],
      "type": "VEC3"
    },
    {
      "bufferView": 1,
      "componentType": 5126,
      "count": 1800,
      "max": [
        0.9939319491386414,
        1.0131449699401855
      ],
      "min": [
        -0.0022752482909709215,
        0.005111499689519405
      ],
      "type": "VEC2"
    },
    {
      "bufferView": 0,
      "componentType": 5125,
      "count": 4536,
      "type": "SCALAR"
    },
    {
      "bufferView": 2,
      "byteOffset": 43200,
      "componentType": 5126,
      "count": 63100,
      "max": [
        149.62857055664063,
        -19.882360458374023,
        237.61595153808594
      ],
      "min": [
        61.64263916015625,
        -68.8469009399414,
        154.78985595703125
      ],
      "type": "VEC3"
    },
    {
      "bufferView": 2,
      "byteOffset": 800400,
      "componentType": 5126,
      "count": 63100,
      "max": [
        0.9999802112579346,
        1.0,
        0.9999892115592957
      ],
      "min": [
        -0.9998809099197388,
        -1.0,
        -0.9999842047691345
      ],
      "type": "VEC3"
    },
    {
      "bufferView": 1,
      "byteOffset": 14400,
      "componentType": 5126,
      "count": 63100,
      "max": [
        0.9967608451843262,
        0.9977640509605408
      ],
      "min": [
        -0.0006604474619962275,
        0.004219949245452881
      ],
      "type": "VEC2"
    },
    {
      "bufferView": 1,
      "byteOffset": 519200,
      "componentType": 5126,
      "count": 63100,
      "max": [
        0.999500036239624,
        0.998752772808075
      ],
      "min": [
        0.0005000000237487257,
        0.0005000000237487257
      ],
      "type": "VEC2"
    },
    {
      "bufferView": 0,
      "byteOffset": 18144,
      "componentType": 5125,
      "count": 134463,
      "type": "SCALAR"
    },
    {
      "bufferView": 2,
      "byteOffset": 1557600,
      "componentType": 5126,
      "count": 6455,
      "max": [
        49.67250442504883,
        270.8214416503906,
        230.86122131347656
      ],
      "min": [
        -72.71990966796875,
        56.72883605957031,
        2.938030242919922
      ],
      "type": "VEC3"
    },
    {
      "bufferView": 2,
      "byteOffset": 1635060,
      "componentType": 5126,
      "count": 6455,
      "max": [
        1.0,
        0.991771399974823,
        0.9995796084403992
      ],
      "min": [
        -0.7963724732398987,
        -0.9999999403953552,
        -0.9997254014015198
      ],
      "type": "VEC3"
    },
    {
      "bufferView": 1,
      "byteOffset": 1024000,
      "componentType": 5126,
      "count": 6455,
      "max": [
        0.9985511302947998,
        0.9942733645439148
      ],
      "min": [
        0.009952506981790066,
        0.008614858612418175
      ],
      "type": "VEC2"
    },
    {
      "bufferView": 1,
      "byteOffset": 1075640,
      "componentType": 5126,
      "count": 6455,
      "max": [
        0.9985511302947998,
        0.9942733645439148
      ],
      "min": [
        0.009952506981790066,
        0.008614858612418175
      ],
      "type": "VEC2"
    },
    {
      "bufferView": 0,
      "byteOffset": 555996,
      "componentType": 5125,
      "count": 15192,
      "type": "SCALAR"
    },
    {
      "bufferView": 2,
      "byteOffset": 1712520,
      "componentType": 5126,
      "count": 28,
      "max": [
        118.49604797363281,
        -26.919021606445313,
        186.93345642089844
      ],
      "min": [
        117.45257568359375,
        -28.173336029052734,
        185.65296936035156
      ],
      "type": "VEC3"
    },
    {
      "bufferView": 2,
      "byteOffset": 1712856,
      "componentType": 5126,
      "count": 28,
      "max": [
        0.9973253011703491,
        0.0,
        0.9946147799491882
      ],
      "min": [
        -0.9973257780075073,
        0.0,
        -0.9946147799491882
      ],
      "type": "VEC3"
    },
    {
      "bufferView": 1,
      "byteOffset": 1127280,
      "componentType": 5126,
      "count": 28,
      "max": [
        0.5937883853912354,
        0.6478501558303833
      ],
      "min": [
        0.48559489846229553,
        0.5674548745155334
      ],
      "type": "VEC2"
    },
    {
      "bufferView": 0,
      "byteOffset": 616764,
      "componentType": 5125,
      "count": 72,
      "type": "SCALAR"
    },
    {
      "bufferView": 2,
      "byteOffset": 1713192,
      "componentType": 5126,
      "count": 5253,
      "max": [
        130.0475311279297,
        -23.833436965942383,
        215.7812042236328
      ],
      "min": [
        76.96591186523438,
        -66.3394775390625,
        162.79193115234375
      ],
      "type": "VEC3"
    },
    {
      "bufferView": 2,
      "byteOffset": 1776228,
      "componentType": 5126,
      "count": 5253,
      "max": [
        1.0,
        1.0,
        1.0
      ],
      "min": [
        -1.0,
        -1.0,
        -1.0
      ],
      "type": "VEC3"
    },
    {
      "bufferView": 1,
      "byteOffset": 1127504,
      "componentType": 5126,
      "count": 5253,
      "max": [
        0.9927262663841248,
        0.9978263974189758
      ],
      "min": [
        0.49314025044441223,
        0.5713920593261719
      ],
      "type": "VEC2"
    },
    {
      "bufferView": 0,
      "byteOffset": 617052,
      "componentType": 5125,
      "count": 11340,
      "type": "SCALAR"
    },
    {
      "bufferView": 2,
      "byteOffset": 1839264,
      "componentType": 5126,
      "count": 140,
      "max": [
        571.8202514648438,
        -49.45654296875,
        759.7030639648438
      ],
      "min": [
        -347.6175842285156,
        -66.01780700683594,
        -374.14361572265625
      ],
      "type": "VEC3"
    },
    {
      "bufferView": 2,
      "byteOffset": 1840944,
      "componentType": 5126,
      "count": 140,
      "max": [
        0.9999997019767761,
        1.0,
        1.0
      ],
      "min": [
        -1.0,
        -2.525755746773939e-07,
        -0.9999997615814209
      ],
      "type": "VEC3"
    },
    {
      "bufferView": 1,
      "byteOffset": 1169528,
      "componentType": 5126,
      "count": 140,
      "max": [
        0.3013496696949005,
        0.6845718622207642
      ],
      "min": [
        0.26088014245033264,
        0.567590594291687
      ],
      "type": "VEC2"
    },
    {
      "bufferView": 1,
      "byteOffset": 1170648,
      "componentType": 5126,
      "count": 140,
      "max": [
        571.8203125,
        -49.45655059814453
      ],
      "min": [
        -347.61761474609375,
        -66.01781463623047
      ],
      "type": "VEC2"
    },
    {
      "bufferView": 0,
      "byteOffset": 662412,
      "componentType": 5125,
      "count": 300,
      "type": "SCALAR"
    },
    {
      "bufferView": 2,
      "byteOffset": 1842624,
      "componentType": 5126,
      "count": 125,
      "max": [
        564.3765869140625,
        205.98822021484375,
        750.0658569335938
      ],
      "min": [
        -340.1958312988281,
        -50.11811828613281,
        -365.4484558105469
      ],
      "type": "VEC3"
    },
    {
      "bufferView": 2,
      "byteOffset": 1844124,
      "componentType": 5126,
      "count": 125,
      "max": [
        0.9630369544029236,
        -0.26936933398246765,
        0.9453418254852295
      ],
      "min": [
        -0.9630369544029236,
        -1.0,
        -0.9453417658805847
      ],
      "type": "VEC3"
    },
    {
      "bufferView": 1,
      "byteOffset": 1171768,
      "componentType": 5126,
      "count": 125,
      "max": [
        0.24829080700874329,
        0.6901833415031433
      ],
      "min": [
        0.22474204003810883,
        0.5715815424919128
      ],
      "type": "VEC2"
    },
    {
      "bufferView": 1,
      "byteOffset": 1172768,
      "componentType": 5126,
      "count": 125,
      "max": [
        564.3766479492188,
        205.9882354736328
      ],
      "min": [
        -340.19586181640625,
        -50.11811828613281
      ],
      "type": "VEC2"
    },
    {
      "bufferView": 0,
      "byteOffset": 663612,
      "componentType": 5125,
      "count": 540,
      "type": "SCALAR"
    }
  ],
  "asset": {
    "extras": {
      "author": "NicolasThuaud (https://sketchfab.com/thuaudnicolas)",
      "license": "CC-BY-4.0 (http://creativecommons.org/licenses/by/4.0/)",
      "source": "https://sketchfab.com/3d-models/pirate-island-84db60f107d64caca28ef2e67910d2f0",
      "title": "Pirate Island"
    },
    "generator": "Sketchfab-12.68.0",
    "version": "2.0"
  },
  "bufferViews": [
    {
      "buffer": 0,
      "byteLength": 665772,
      "name": "floatBufferViews",
      "target": 34963
    },
    {
      "buffer": 0,
      "byteLength": 1173768,
      "byteOffset": 665772,
      "byteStride": 8,
      "name": "floatBufferViews",
      "target": 34962
    },
    {
      "buffer": 0,
      "byteLength": 1845624,
      "byteOffset": 1839540,
      "byteStride": 12,
      "name": "floatBufferViews",
      "target": 34962
    }
  ],
  "buffers": [
    {
      "byteLength": 3685164,
      "uri": "scene.bin"
    }
  ],
  "images": [
    {
      "uri": "textures/Cloth_and_Sand_baseColor.jpeg"
    },
    {
      "uri": "textures/Wood_baseColor.jpeg"
    },
    {
      "uri": "textures/Wood_metallicRoughness.png"
    },
    {
      "uri": "textures/Vegetation_baseColor.png"
    },
    {
      "uri": "textures/Lamp_baseColor.jpeg"
    }
  ],
  "materials": [
    {
      "doubleSided": true,
      "name": "Cloth_and_Sand",
      "pbrMetallicRoughness": {
        "baseColorTexture": {
          "index": 0
        },
        "metallicFactor": 0.0,
        "roughnessFactor": 0.8929713596
      }
    },
    {
      "doubleSided": true,
      "name": "Wood",
      "occlusionTexture": {
        "index": 2,
        "strength": 0.1846417683,
        "texCoord": 1
      },
      "pbrMetallicRoughness": {
        "baseColorTexture": {
          "index": 1
        },
        "metallicFactor": 0.0,
        "metallicRoughnessTexture": {
          "index": 2,
          "texCoord": 1
        },
        "roughnessFactor": 0.9312118902
      }
    },
    {
      "alphaMode": "BLEND",
      "doubleSided": true,
      "name": "Vegetation",
      "pbrMetallicRoughness": {
        "baseColorTexture": {
          "index": 3
        },
        "metallicFactor": 0.0,
        "roughnessFactor": 0.8929713596
      }
    },
    {
      "doubleSided": true,
      "emissiveFactor": [
        1.0,
        1.0,
        1.0
      ],
      "emissiveTexture": {
        "index": 1
      },
      "name": "Lamp",
      "pbrMetallicRoughness": {
        "baseColorTexture": {
          "index": 4
        },
        "metallicFactor": 0.0,
        "roughnessFactor": 0.8929713596
      }
    },
    {
      "doubleSided": true,
      "name": "Metal",
      "pbrMetallicRoughness": {
        "baseColorTexture": {
          "index": 4
        },
        "roughnessFactor": 0.48608993899999997
      }
    },
    {
      "emissiveFactor": [
        0.9927591463,
        0.9927591463,
        0.9927591463
      ],
      "emissiveTexture": {
        "index": 4
      },
      "name": "Skydome",
      "pbrMetallicRoughness": {
        "baseColorTexture": {
          "index": 4
        },
        "metallicFactor": 0.0,
        "roughnessFactor": 0.8929713596
      }
    }
  ],
  "meshes": [
    {
      "name": "ClothAndSand_Cloth and Sand_0",
      "primitives": [
        {
          "attributes": {
            "NORMAL": 1,
            "POSITION": 0,
            "TEXCOORD_0": 2
          },
          "indices": 3,
          "material": 0,
          "mode": 4
        }
      ]
    },
    {
      "name": "Wood_Wood_0",
      "primitives": [
        {
          "attributes": {
            "NORMAL": 5,
            "POSITION": 4,
            "TEXCOORD_0": 6,
            "TEXCOORD_1": 7
          },
          "indices": 8,
          "material": 1,
          "mode": 4
        }
      ]
    },
    {
      "name": "Vegetation_Vegetation_0",
      "primitives": [
        {
          "attributes": {
            "NORMAL": 10,
            "POSITION": 9,
            "TEXCOORD_0": 11,
            "TEXCOORD_1": 12
          },
          "indices": 13,
          "material": 2,
          "mode": 4
        }
      ]
    },
    {
      "name": "Lantern_Lamp_0",
      "primitives": [
        {
          "attributes": {
            "NORMAL": 15,
            "POSITION": 14,
            "TEXCOORD_0": 16
          },
          "indices": 17,
          "material": 3,
          "mode": 4
        }
      ]
    },
    {
      "name": "Metal_Metal_0",
      "primitives": [
        {
          "attributes": {
            "NORMAL": 19,
            "POSITION": 18,
            "TEXCOORD_0": 20
          },
          "indices": 21,
          "material": 4,
          "mode": 4
        }
      ]
    },
    {
      "name": "SkyAndWater_Wood_0",
      "primitives": [
        {
          "attributes": {
            "NORMAL": 23,
            "POSITION": 22,
            "TEXCOORD_0": 24,
            "TEXCOORD_1": 25
          },
          "indices": 26,
          "material": 1,
          "mode": 4
        }
      ]
    },
    {
      "name": "SkyAndWater_Skydome_0",
      "primitives": [
        {
          "attributes": {
            "NORMAL": 28,
            "POSITION": 27,
            "TEXCOORD_0": 29,
            "TEXCOORD_1": 30
          },
          "indices": 31,
          "material": 5,
          "mode": 4
        }
      ]
    }
  ],
  "nodes": [
    {
      "children": [
        1
      ],
      "matrix": [
        1.0,
        0.0,
        0.0,
        0.0,
        0.0,
        2.220446049250313e-16,
        -1.0,
        0.0,
        0.0,
        1.0,
        2.220446049250313e-16,
        0.0,
        0.0,
        0.0,
        0.0,
        1.0
      ],
      "name": "Sketchfab_model"
    },
    {
      "children": [
        2
      ],
      "matrix": [
        1.0,
        0.0,
        0.0,
        0.0,
        0.0,
        0.0,
        1.0,
        0.0,
        0.0,
        -1.0,
        0.0,
        0.0,
        0.0,
        0.0,
        0.0,
        1.0
      ],
      "name": "ace9c7db04fb42498590eb581b49c1e0.fbx"
    },
    {
      "children": [
        3,
        5,
        8,
        11,
        14,
        17
      ],
      "name": "RootNode"
    },
    {
      "children": [
        4
      ],
      "matrix": [
        -0.8409493407164965,
        9.378264750449378e-17,
        -0.07971438385686064,
        0.0,
        -0.07942316601273346,
        0.07213912831099621,
        0.8378771291258834,
        0.0,
        0.006807620303212002,
        0.8416330095782356,
        -0.07181719946696384,
        0.0,
        -4.931568145751953,
        41.007591247558594,
        -12.859363555908203,
        1.0
      ],
      "name": "ClothAndSand"
    },
    {
      "mesh": 0,
      "name": "ClothAndSand_Cloth and Sand_0"
    },
    {
      "children": [
        6
      ],
      "matrix": [
        -0.9999999999999563,
        1.2246467991473041e-16,
        -2.9503340183179294e-07,
        0.0,
        1.6026135037477788e-14,
        0.9999999999999986,
        -5.390464353805439e-08,
        0.0,
        2.392431754568903e-07,
        -4.371138322592038e-08,
        -0.810901999473535,
        0.0,
        100.18645477294922,
        57.53173828125,
        137.33273315429688,
        1.0
      ],
      "name": "Wood"
    },
    {
      "children": [
        7
      ],
      "matrix": [
        1.0,
        0.0,
        -0.0,
        0.0,
        0.0,
        1.0,
        0.0,
        0.0,
        0.0,
        0.0,
        1.0,
        0.0,
        -11.245583534240723,
        8.486085891723633,
        -23.420896530151367,
        1.0
      ],
      "name": "Object_6"
    },
    {
      "mesh": 1,
      "name": "Wood_Wood_0"
    },
    {
      "children": [
        9
      ],
      "matrix": [
        1.776216571319271e-08,
        0.40635100007057157,
        4.5114023635780753e-17,
        0.0,
        -4.5114023635780753e-17,
        0.0,
        -0.4063510000705719,
        0.0,
        -0.40635100007057157,
        1.7762165758306733e-08,
        0.0,
        0.0,
        -1.9562911987304688,
        24.886728286743164,
        -1.8322830200195313,
        1.0
      ],
      "name": "Vegetation"
    },
    {
      "children": [
        10
      ],
      "matrix": [
        1.0,
        0.0,
        -0.0,
        0.0,
        0.0,
        1.0,
        0.0,
        0.0,
        0.0,
        0.0,
        1.0,
        0.0,
        11.523700714111328,
        -163.775146484375,
        -116.89962005615234,
        1.0
      ],
      "name": "Object_9"
    },
    {
      "mesh": 2,
      "name": "Vegetation_Vegetation_0"
    },
    {
      "children": [
        12
      ],
      "matrix": [
        -0.9999999999999245,
        1.2246467991472726e-16,
        -3.8941436754124934e-07,
        0.0,
        1.7144306832830104e-14,
        0.999999999999999,
        -4.371138707693166e-08,
        0.0,
        3.157768892629351e-07,
        -3.544565118044986e-08,
        -0.8109019994735098,
        0.0,
        -6.542228698730469,
        37.84795379638672,
        5.259246826171875,
        1.0
      ],
      "name": "Lantern"
    },
    {
      "children": [
        13
      ],
      "matrix": [
        1.0,
        0.0,
        -0.0,
        0.0,
        0.0,
        1.0,
        0.0,
        0.0,
        0.0,
        0.0,
        1.0,
        0.0,
        -117.97431182861328,
        28.169862747192383,
        -186.293212890625,
        1.0
      ],
      "name": "Object_12"
    },
    {
      "mesh": 3,
      "name": "Lantern_Lamp_0"
    },
    {
      "children": [
        15
      ],
      "matrix": [
        -0.9999999999999245,
        1.2246467991472726e-16,
        -3.8941436754124934e-07,
        0.0,
        1.7144306832830104e-14,
        0.999999999999999,
        -4.371138707693166e-08,
        0.0,
        3.157768892629351e-07,
        -3.544565118044986e-08,
        -0.8109019994735098,
        0.0,
        100.18645477294922,
        57.53173828125,
        137.33273315429688,
        1.0
      ],
      "name": "Metal"
    },
    {
      "children": [
        16
      ],
      "matrix": [
        1.0,
        0.0,
        -0.0,
        0.0,
        0.0,
        1.0,
        0.0,
        0.0,
        0.0,
        0.0,
        1.0,
        0.0,
        -11.245583534240723,
        8.486085891723633,
        -23.420896530151367,
        1.0
      ],
      "name": "Object_15"
    },
    {
      "mesh": 4,
      "name": "Metal_Metal_0"
    },
    {
      "children": [
        18
      ],
      "matrix": [
        -0.9999999999999245,
        1.2246467991472726e-16,
        -3.8941436754124934e-07,
        0.0,
        1.7144306832830104e-14,
        0.999999999999999,
        -4.371138707693166e-08,
        0.0,
        3.157768892629351e-07,
        -3.544565118044986e-08,
        -0.8109019994735098,
        0.0,
        100.18645477294922,
        57.53173828125,
        137.33273315429688,
        1.0
      ],
      "name": "SkyAndWater"
    },
    {
      "children": [
        19,
        20
      ],
      "matrix": [
        1.0,
        0.0,
        -0.0,
        0.0,
        0.0,
        1.0,
        0.0,
        0.0,
        0.0,
        0.0,
        1.0,
        0.0,
        -11.245583534240723,
        8.486085891723633,
        -23.420896530151367,
        1.0
      ],
      "name": "Object_18"
    },
    {
      "mesh": 5,
      "name": "SkyAndWater_Wood_0"
    },
    {
      "mesh": 6,
      "name": "SkyAndWater_Skydome_0"
    }
  ],
  "samplers": [
    {
      "magFilter": 9729,
      "minFilter": 9987,
      "wrapS": 10497,
      "wrapT": 10497
    }
  ],
  "scene": 0,
  "scenes": [
    {
      "name": "Sketchfab_Scene",
      "nodes": [
        0
      ]
    }
  ],
  "textures": [
    {
      "sampler": 0,
      "source": 0
    },
    {
      "sampler": 0,
      "source": 1
    },
    {
      "sampler": 0,
      "source": 2
    },
    {
      "sampler": 0,
      "source": 3
    },
    {
      "sampler": 0,
      "source": 4
    }
  ]
}
