# Blender 3.3.1
# www.blender.org
mtllib Boat.mtl
o Cube
v -1.000000 0.750000 -1.000000
v -0.250000 -0.500000 -1.000000
v 1.000000 0.750000 -1.000000
v 0.250000 -0.500000 -1.000000
v -1.000000 0.750000 1.000000
v -0.250000 -0.500000 1.000000
v 1.000000 0.750000 1.000000
v 0.250000 -0.500000 1.000000
v -0.800000 0.000000 -1.000000
v 0.800000 0.000000 1.000000
v 0.800000 0.000000 -1.000000
v -0.800000 0.000000 1.000000
v -0.187500 -0.375000 1.250000
v 0.187500 -0.375000 1.250000
v 0.600000 0.000000 1.250000
v 0.750000 0.750000 1.250000
v -0.600000 0.000000 1.250000
v -0.750000 0.750000 1.250000
v -0.200000 0.000000 -2.000000
v -0.062500 -0.250000 -2.000000
v 0.200000 0.000000 -2.000000
v 0.062500 -0.250000 -2.000000
v -0.250000 0.750000 -2.000000
v 0.250000 0.750000 -2.000000
v 0.000000 0.750000 -2.125000
v 0.000000 0.000000 -2.125000
v 0.000000 0.750000 -1.000000
v 0.000000 -0.250000 -2.000000
v -0.250000 -0.500000 -0.666667
v -0.250000 -0.500000 0.666667
v 0.250000 0.500000 -0.166667
v 0.250000 0.500000 0.166667
v 0.250000 -0.500000 0.666667
v 0.250000 -0.500000 -0.666667
v -0.250000 0.500000 0.166667
v -0.250000 0.500000 -0.166667
v -0.800000 0.000000 0.666666
v -0.800000 0.000000 -0.666667
v 0.800000 0.000000 -0.666666
v 0.800000 0.000000 0.666667
v 1.000000 0.500000 -0.666666
v 1.000000 0.500000 0.666667
v -1.000000 0.500000 0.666666
v -1.000000 0.500000 -0.666667
v 0.250000 2.000000 -0.166667
v 0.250000 2.000000 0.166667
v -0.250000 2.000000 0.166667
v -0.250000 2.000000 -0.166667
v 0.250000 1.250000 0.166667
v -0.250000 1.250000 0.166667
v -0.250000 1.000000 -0.166667
v 0.250000 1.000000 -0.166667
v -0.250000 2.000000 -0.291667
v 0.250000 2.000000 -0.291667
v -0.250000 1.000000 -0.291667
v 0.250000 1.000000 -0.291667
v 1.000000 2.000000 -0.166666
v 1.000000 1.250000 -0.166666
v 1.000000 2.000000 -0.291666
v 1.000000 1.250000 -0.291666
v -1.000000 2.000000 -0.166667
v -1.000000 1.250000 -0.166667
v -1.000000 2.000000 -0.291667
v -1.000000 1.250000 -0.291667
v 0.250000 2.250000 -0.166667
v 0.250000 2.250000 0.166667
v -0.250000 2.250000 0.166667
v -0.250000 2.250000 -0.166667
vn -0.0000 0.8000 -0.6000
vn 0.9463 -0.3028 0.1136
vn 0.7324 -0.1709 0.6591
vn -0.0000 -1.0000 -0.0000
vn -0.6903 -0.6328 -0.3509
vn -0.9463 -0.3028 -0.1136
vn -0.6727 -0.7399 -0.0000
vn 0.6903 -0.6328 -0.3509
vn -0.5923 -0.6516 0.4739
vn 0.6727 -0.7399 -0.0000
vn -0.0000 -0.0000 1.0000
vn -0.7324 -0.1709 0.6591
vn 0.5923 -0.6516 0.4739
vn -0.0000 -0.8944 0.4472
vn -0.0000 1.0000 -0.0000
vn -0.4856 -0.0162 -0.8740
vn -0.4066 -0.3252 -0.8538
vn -0.0000 -0.9701 -0.2425
vn 0.8211 -0.1368 -0.5542
vn -0.8211 -0.1368 -0.5542
vn 0.4856 -0.0162 -0.8740
vn 0.4066 -0.3252 -0.8538
vn -0.9463 -0.3028 0.1136
vn -0.9285 -0.3714 -0.0000
vn 0.9463 -0.3028 -0.1136
vn 0.9285 -0.3714 -0.0000
vn -0.0000 0.8000 0.6000
vn -0.0000 -0.0000 -1.0000
vn -1.0000 -0.0000 -0.0000
vn 1.0000 -0.0000 -0.0000
vn 0.3162 -0.9487 -0.0000
vn -0.3162 -0.9487 -0.0000
vt 0.625000 0.500000
vt 0.375000 0.500000
vt 0.625000 0.750000
vt 0.375000 0.750000
vt 0.875000 0.500000
vt 0.625000 0.250000
vt 0.375000 0.250000
vt 0.125000 0.500000
vt 0.625000 1.000000
vt 0.875000 0.750000
vt 0.375000 1.000000
vt 0.125000 0.750000
vt 0.500000 0.500000
vt 0.500000 1.000000
vt 0.500000 0.750000
vt 0.500000 0.250000
vt 0.375000 0.250000
vt 0.125000 0.500000
vt 0.375000 0.000000
vt 0.375000 1.000000
vt 0.125000 0.750000
vt 0.500000 0.000000
vt 0.500000 1.000000
vt 0.625000 1.000000
vt 0.625000 0.000000
vt 0.875000 0.750000
vt 0.500000 0.250000
vt 0.625000 0.250000
vt 0.875000 0.500000
vt 0.500000 0.500000
vt 0.375000 0.500000
vt 0.500000 0.750000
vt 0.375000 0.750000
vt 0.625000 0.500000
vt 0.625000 0.750000
vt 0.625000 0.625000
vt 0.500000 0.625000
vt 0.625000 0.625000
vt 0.375000 0.625000
vt 0.375000 0.416667
vt 0.291667 0.500000
vt 0.375000 0.333333
vt 0.208333 0.500000
vt 0.739583 0.687500
vt 0.760417 0.687500
vt 0.375000 0.916667
vt 0.208333 0.750000
vt 0.375000 0.833333
vt 0.291667 0.750000
vt 0.760417 0.562500
vt 0.739583 0.562500
vt 0.500000 0.333333
vt 0.500000 0.416667
vt 0.500000 0.833333
vt 0.500000 0.916667
vt 0.625000 0.833333
vt 0.708333 0.750000
vt 0.625000 0.916667
vt 0.791667 0.750000
vt 0.625000 0.333333
vt 0.791667 0.500000
vt 0.625000 0.416667
vt 0.708333 0.500000
vt 0.739583 0.687500
vt 0.760417 0.687500
vt 0.760417 0.562500
vt 0.739583 0.562500
vt 0.760417 0.687500
vt 0.760417 0.562500
vt 0.739583 0.562500
vt 0.739583 0.687500
vt 0.739583 0.562500
vt 0.739583 0.687500
vt 0.739583 0.562500
vt 0.739583 0.687500
vt 0.739583 0.687500
vt 0.739583 0.687500
vt 0.739583 0.687500
vt 0.739583 0.687500
vt 0.739583 0.562500
vt 0.739583 0.562500
vt 0.739583 0.562500
vt 0.739583 0.562500
vt 0.739583 0.687500
vt 0.760417 0.687500
vt 0.760417 0.562500
vt 0.739583 0.562500
s 0
usemtl Material
f 43/61/1 5/5/1 7/10/1 42/59/1
f 40/55/2 42/58/2 7/9/2 10/14/2
f 10/14/3 7/9/3 16/24/3 15/23/3
f 29/41/4 2/2/4 4/4/4 34/49/4
f 2/2/5 9/13/5 19/30/5 20/31/5
f 38/53/6 44/62/6 1/1/6 9/13/6
f 29/40/7 38/53/7 9/13/7 2/2/7
f 11/15/8 4/4/8 22/33/8 21/32/8
f 12/16/9 6/7/9 13/17/9 17/27/9
f 33/46/10 40/55/10 10/14/10 8/11/10
f 15/22/11 16/25/11 18/28/11 17/27/11
f 14/19/11 15/22/11 17/27/11 13/17/11
f 5/6/12 12/16/12 17/27/12 18/28/12
f 8/11/13 10/14/13 15/23/13 14/20/13
f 6/8/14 8/12/14 14/21/14 13/18/14
f 7/10/15 5/5/15 18/29/15 16/26/15
f 19/30/16 23/34/16 25/36/16 26/37/16
f 20/31/17 19/30/17 26/37/17 28/39/17
f 4/4/18 2/2/18 20/31/18 28/39/18 22/33/18
f 1/1/15 27/38/15 25/36/15 23/34/15
f 3/3/19 11/15/19 21/32/19 24/35/19
f 9/13/20 1/1/20 23/34/20 19/30/20
f 25/36/15 27/38/15 3/3/15 24/35/15
f 26/37/21 25/36/21 24/35/21 21/32/21
f 28/39/22 26/37/22 21/32/22 22/33/22
f 4/4/10 11/15/10 39/54/10 34/48/10
f 34/48/10 39/54/10 40/55/10 33/46/10
f 6/7/7 12/16/7 37/52/7 30/42/7
f 30/42/7 37/52/7 38/53/7 29/40/7
f 12/16/23 5/6/23 43/60/23 37/52/23
f 37/52/24 43/60/24 44/62/24 38/53/24
f 6/8/4 30/43/4 33/47/4 8/12/4
f 30/43/4 29/41/4 34/49/4 33/47/4
f 11/15/25 3/3/25 41/56/25 39/54/25
f 39/54/26 41/56/26 42/58/26 40/55/26
f 1/1/27 44/63/27 41/57/27 3/3/27 27/38/27
f 50/69/11 49/68/11 46/65/11 47/66/11
f 31/44/15 32/45/15 42/59/15 41/57/15
f 35/50/15 36/51/15 44/63/15 43/61/15
f 36/51/15 31/44/15 41/57/15 44/63/15
f 32/45/15 35/50/15 43/61/15 42/59/15
f 45/64/28 48/67/28 68/87/28 65/84/28
f 51/70/29 50/69/29 47/66/29 48/67/29
f 51/70/11 48/67/11 61/80/11 62/81/11
f 49/68/30 52/71/30 45/64/30 46/65/30
f 32/45/30 31/44/30 52/71/30 49/68/30
f 31/44/28 36/51/28 51/70/28 52/71/28
f 36/51/29 35/50/29 50/69/29 51/70/29
f 35/50/11 32/45/11 49/68/11 50/69/11
f 56/75/28 55/74/28 53/72/28 54/73/28
f 48/67/15 45/64/15 54/73/15 53/72/15
f 52/71/4 51/70/4 55/74/4 56/75/4
f 52/71/31 56/75/31 60/79/31 58/77/31
f 57/76/30 58/77/30 60/79/30 59/78/30
f 45/64/11 52/71/11 58/77/11 57/76/11
f 54/73/15 45/64/15 57/76/15 59/78/15
f 56/75/28 54/73/28 59/78/28 60/79/28
f 62/81/29 61/80/29 63/82/29 64/83/29
f 55/74/32 51/70/32 62/81/32 64/83/32
f 53/72/28 55/74/28 64/83/28 63/82/28
f 48/67/15 53/72/15 63/82/15 61/80/15
f 68/87/15 67/86/15 66/85/15 65/84/15
f 46/65/30 45/64/30 65/84/30 66/85/30
f 47/66/11 46/65/11 66/85/11 67/86/11
f 48/67/29 47/66/29 67/86/29 68/87/29
